<svg width="28" height="28" viewBox="0 0 28 28" fill="none" xmlns="http://www.w3.org/2000/svg">
<path fill-rule="evenodd" clip-rule="evenodd" d="M13.2929 6.29289C13.6834 5.90237 14.3166 5.90237 14.7071 6.29289L21.7071 13.2929C21.9931 13.5789 22.0787 14.009 21.9239 14.3827C21.7691 14.7564 21.4045 15 21 15H20V21C20 21.5523 19.5523 22 19 22H17C16.4477 22 16 21.5523 16 21V18C16 17.4477 15.5523 17 15 17H13C12.4477 17 12 17.4477 12 18V21C12 21.5523 11.5523 22 11 22H9.00003C8.44774 22 8.00003 21.5523 8.00003 21V15H7.00003C6.59557 15 6.23093 14.7564 6.07615 14.3827C5.92137 14.009 6.00692 13.5789 6.29292 13.2929L13.2929 6.29289Z" fill="#6D687F"/>
</svg>
