<svg width="48" height="48" viewBox="0 0 48 48" fill="none" xmlns="http://www.w3.org/2000/svg">
<path d="M36 15V21M36 21V27M36 21H42M36 21H30M25.5 12.75C25.5 16.4779 22.4779 19.5 18.75 19.5C15.0221 19.5 12 16.4779 12 12.75C12 9.02208 15.0221 6 18.75 6C22.4779 6 25.5 9.02208 25.5 12.75ZM6.00184 38.4686C6.00062 38.3959 6 38.323 6 38.25C6 31.2084 11.7084 25.5 18.75 25.5C25.7916 25.5 31.5 31.2084 31.5 38.25V38.2551C31.5 38.3264 31.4994 38.3976 31.4982 38.4686C27.7747 40.7105 23.4129 42 18.75 42C14.0871 42 9.72528 40.7105 6.00184 38.4686Z" stroke="#6D687F" stroke-width="1.5" stroke-linecap="round" stroke-linejoin="round"/>
</svg>
