<svg width="80" height="80" viewBox="0 0 80 80" fill="none" xmlns="http://www.w3.org/2000/svg">
<rect x="0.5" y="0.5" width="79" height="79" rx="39.5" fill="#E4E2E8"/>
<rect x="0.5" y="0.5" width="79" height="79" rx="39.5" stroke="#E4E2E8"/>
<path fill-rule="evenodd" clip-rule="evenodd" d="M22.5 17.25C21.5335 17.25 20.75 18.0335 20.75 19C20.75 19.9665 21.5335 20.75 22.5 20.75V59.25H20.75C19.7835 59.25 19 60.0335 19 61C19 61.9665 19.7835 62.75 20.75 62.75H59.25C60.2165 62.75 61 61.9665 61 61C61 60.0335 60.2165 59.25 59.25 59.25H57.5V20.75C58.4665 20.75 59.25 19.9665 59.25 19C59.25 18.0335 58.4665 17.25 57.5 17.25H22.5ZM33 26C32.0335 26 31.25 26.7835 31.25 27.75C31.25 28.7165 32.0335 29.5 33 29.5H36.5C37.4665 29.5 38.25 28.7165 38.25 27.75C38.25 26.7835 37.4665 26 36.5 26H33ZM31.25 34.75C31.25 33.7835 32.0335 33 33 33H36.5C37.4665 33 38.25 33.7835 38.25 34.75C38.25 35.7165 37.4665 36.5 36.5 36.5H33C32.0335 36.5 31.25 35.7165 31.25 34.75ZM33 40C32.0335 40 31.25 40.7835 31.25 41.75C31.25 42.7165 32.0335 43.5 33 43.5H36.5C37.4665 43.5 38.25 42.7165 38.25 41.75C38.25 40.7835 37.4665 40 36.5 40H33ZM41.75 27.75C41.75 26.7835 42.5335 26 43.5 26H47C47.9665 26 48.75 26.7835 48.75 27.75C48.75 28.7165 47.9665 29.5 47 29.5H43.5C42.5335 29.5 41.75 28.7165 41.75 27.75ZM43.5 33C42.5335 33 41.75 33.7835 41.75 34.75C41.75 35.7165 42.5335 36.5 43.5 36.5H47C47.9665 36.5 48.75 35.7165 48.75 34.75C48.75 33.7835 47.9665 33 47 33H43.5ZM41.75 41.75C41.75 40.7835 42.5335 40 43.5 40H47C47.9665 40 48.75 40.7835 48.75 41.75C48.75 42.7165 47.9665 43.5 47 43.5H43.5C42.5335 43.5 41.75 42.7165 41.75 41.75ZM33 57.5V52.25C33 51.2835 33.7835 50.5 34.75 50.5H45.25C46.2165 50.5 47 51.2835 47 52.25V57.5C47 58.4665 46.2165 59.25 45.25 59.25H34.75C33.7835 59.25 33 58.4665 33 57.5Z" fill="#6D687F"/>
</svg>
