<svg width="64" height="64" viewBox="0 0 64 64" fill="none" xmlns="http://www.w3.org/2000/svg">
<path d="M26.3438 20.0503C29.4679 17.3166 34.5333 17.3166 37.6575 20.0503C40.7817 22.7839 40.7817 27.2161 37.6575 29.9497C37.1137 30.4255 36.5111 30.8185 35.8702 31.1287C33.8817 32.0911 32.0006 33.7909 32.0006 36V38M56 32C56 45.2548 45.2548 56 32 56C18.7452 56 8 45.2548 8 32C8 18.7452 18.7452 8 32 8C45.2548 8 56 18.7452 56 32ZM32 46H32.02V46.02H32V46Z" stroke="#6D687F" stroke-width="4" stroke-linecap="round" stroke-linejoin="round"/>
</svg>
