<svg width="80" height="80" viewBox="0 0 80 80" fill="none" xmlns="http://www.w3.org/2000/svg">
<rect x="0.5" y="0.5" width="79" height="79" rx="39.5" fill="#E4E2E8"/>
<rect x="0.5" y="0.5" width="79" height="79" rx="39.5" stroke="#E4E2E8"/>
<path d="M19.875 22.5C17.4588 22.5 15.5 24.4588 15.5 26.875V43.5H43.5V26.875C43.5 24.4588 41.5412 22.5 39.125 22.5H19.875Z" fill="#6D687F"/>
<path d="M43.5 47H15.5V53.125C15.5 55.5412 17.4588 57.5 19.875 57.5H20.75C20.75 53.634 23.884 50.5 27.75 50.5C31.616 50.5 34.75 53.634 34.75 57.5H41.75C42.7165 57.5 43.5 56.7165 43.5 55.75V47Z" fill="#6D687F"/>
<path d="M31.25 57.5C31.25 55.567 29.683 54 27.75 54C25.817 54 24.25 55.567 24.25 57.5C24.25 59.433 25.817 61 27.75 61C29.683 61 31.25 59.433 31.25 57.5Z" fill="#6D687F"/>
<path d="M48.75 27.75C47.7835 27.75 47 28.5335 47 29.5V55.75C47 55.9525 47.0344 56.147 47.0977 56.328C47.6553 53.0199 50.5334 50.5 54 50.5C57.8364 50.5 60.9519 53.5862 60.9995 57.4113C62.9906 57.0028 64.5523 55.2287 64.4161 53.0187C63.8724 44.1978 60.7143 36.0824 55.709 29.4414C54.882 28.3441 53.5952 27.75 52.2782 27.75H48.75Z" fill="#6D687F"/>
<path d="M57.5 57.5C57.5 55.567 55.933 54 54 54C52.067 54 50.5 55.567 50.5 57.5C50.5 59.433 52.067 61 54 61C55.933 61 57.5 59.433 57.5 57.5Z" fill="#6D687F"/>
</svg>
