<svg width="48" height="48" viewBox="0 0 48 48" fill="none" xmlns="http://www.w3.org/2000/svg">
<path d="M16.5 37.5C16.5 39.1569 15.1569 40.5 13.5 40.5C11.8431 40.5 10.5 39.1569 10.5 37.5M16.5 37.5C16.5 35.8431 15.1569 34.5 13.5 34.5C11.8431 34.5 10.5 35.8431 10.5 37.5M16.5 37.5H28.5M10.5 37.5H6.75C5.50736 37.5 4.5 36.4926 4.5 35.25V28.5009M39 37.5C39 39.1569 37.6569 40.5 36 40.5C34.3431 40.5 33 39.1569 33 37.5M39 37.5C39 35.8431 37.6569 34.5 36 34.5C34.3431 34.5 33 35.8431 33 37.5M39 37.5L41.25 37.4999C42.4926 37.4999 43.5073 36.4914 43.4309 35.2511C43.0108 28.4359 40.6946 22.1338 37.0032 16.8657C36.2788 15.8318 35.1058 15.2155 33.8453 15.1463H28.5M33 37.5H28.5M28.5 15.1463V13.2296C28.5 12.0946 27.655 11.1344 26.526 11.0173C23.2307 10.6753 19.8858 10.5 16.5 10.5C13.1142 10.5 9.76931 10.6753 6.47396 11.0173C5.34504 11.1344 4.5 12.0946 4.5 13.2296V28.5009M28.5 15.1463V28.5009M28.5 37.5V28.5009M28.5 28.5009H4.5" stroke="#6D687F" stroke-width="1.5" stroke-linecap="round" stroke-linejoin="round"/>
</svg>
