<svg width="17" height="16" viewBox="0 0 17 16" fill="none" xmlns="http://www.w3.org/2000/svg">
<path fill-rule="evenodd" clip-rule="evenodd" d="M13 9.75C13 8.23122 11.7688 7 10.25 7H5.06066L7.28033 9.21967C7.57322 9.51256 7.57322 9.98744 7.28033 10.2803C6.98744 10.5732 6.51256 10.5732 6.21967 10.2803L2.71967 6.78033C2.42678 6.48744 2.42678 6.01256 2.71967 5.71967L6.21967 2.21967C6.51256 1.92678 6.98744 1.92678 7.28033 2.21967C7.57322 2.51256 7.57322 2.98744 7.28033 3.28033L5.06066 5.5L10.25 5.5C12.5972 5.5 14.5 7.40279 14.5 9.75C14.5 12.0972 12.5972 14 10.25 14H9.25C8.83579 14 8.5 13.6642 8.5 13.25C8.5 12.8358 8.83579 12.5 9.25 12.5H10.25C11.7688 12.5 13 11.2688 13 9.75Z" fill="#161519"/>
</svg>
