<svg width="80" height="80" viewBox="0 0 80 80" fill="none" xmlns="http://www.w3.org/2000/svg">
<rect x="0.5" y="0.5" width="79" height="79" rx="39.5" fill="#E4E2E8"/>
<rect x="0.5" y="0.5" width="79" height="79" rx="39.5" stroke="#E4E2E8"/>
<path d="M40.0001 33.6C45.302 33.6 49.6001 29.302 49.6001 24C49.6001 18.6981 45.302 14.4 40.0001 14.4C34.6982 14.4 30.4001 18.6981 30.4001 24C30.4001 29.302 34.6982 33.6 40.0001 33.6Z" fill="#6D687F"/>
<path d="M19.0886 54.3793C18.465 56.005 19.022 57.8272 20.3975 58.8947C25.8131 63.0978 32.6146 65.6 40.0005 65.6C47.3939 65.6 54.2017 63.0926 59.62 58.8819C60.9948 57.8134 61.5506 55.9909 60.9259 54.3656C57.6963 45.9633 49.5495 40 40.0099 40C30.4651 40 22.3146 45.9699 19.0886 54.3793Z" fill="#6D687F"/>
</svg>
