<svg xmlns="http://www.w3.org/2000/svg" width="132" height="24" viewBox="0 0 132 24" fill="none">
  <path d="M10.825 10.5795L7.68611 9.8974C6.1817 9.55194 5.41249 8.8725 5.27845 7.69764H1.76847C1.87596 10.5906 3.64356 12.4311 6.92173 13.1451L10.088 13.855C11.5654 14.1753 12.2652 14.8503 12.3882 15.9619H15.9008C15.8729 13.0332 14.2075 11.3102 10.825 10.5795ZM8.61414 19.0136C6.37589 19.0136 5.01126 18.0038 4.98383 16.3113H1.49023C1.57207 19.8868 4.35616 22.1525 8.61414 22.1525C8.99101 22.1525 9.35726 22.1348 9.71113 22.0998V18.9296C9.37143 18.9849 9.00472 19.0136 8.61414 19.0136ZM8.85962 1.49074C8.59067 1.49074 8.32704 1.50047 8.0696 1.52037V4.64549C8.30315 4.61675 8.54866 4.60214 8.80521 4.60214C10.7701 4.60214 11.9985 5.612 12.0803 7.33182H15.5739C15.4647 3.72897 12.8991 1.49074 8.85962 1.49074Z" fill="#161519"/>
  <path d="M3.95262 1.50684H3.83451C2.68974 1.50684 1.76172 2.43486 1.76172 3.57963V3.57965C1.76172 4.72442 2.68974 5.65244 3.83451 5.65244H3.95262C5.09739 5.65244 6.02542 4.72442 6.02542 3.57965V3.57963C6.02542 2.43486 5.09739 1.50684 3.95262 1.50684Z" fill="#4C17ED"/>
  <path d="M13.9468 18.0068H13.8287C12.6839 18.0068 11.7559 18.9349 11.7559 20.0796V20.0796C11.7559 21.2244 12.6839 22.1524 13.8287 22.1524H13.9468C15.0915 22.1524 16.0196 21.2244 16.0196 20.0796V20.0796C16.0196 18.9349 15.0915 18.0068 13.9468 18.0068Z" fill="#4C17ED"/>
  <path d="M17.6777 15.6238C17.6777 11.5604 20.3255 8.75537 24.1267 8.75537C28.0066 8.75537 30.4708 11.3507 30.4708 15.3879V16.3578L20.7187 16.3841C20.9547 18.6648 22.1606 19.8183 24.284 19.8183C26.0405 19.8183 27.1939 19.1367 27.561 17.9046H30.5233C29.9728 20.7358 27.6134 22.4398 24.2316 22.4398C20.3779 22.4398 17.6777 19.6348 17.6777 15.6238ZM20.7974 14.3392H27.2988C27.2988 12.5566 26.0667 11.3769 24.1529 11.3769C22.2654 11.3769 21.1119 12.3993 20.7974 14.3392Z" fill="#161519"/>
  <path d="M32.6445 22.099V9.14863H35.6068L35.869 10.8264C36.6817 9.51562 38.2546 8.75537 40.011 8.75537C43.2618 8.75537 44.9396 10.774 44.9396 14.1296V22.099H41.7413V14.8898C41.7413 12.7139 40.6664 11.6653 39.0149 11.6653C37.0487 11.6653 35.8428 13.0285 35.8428 15.1257V22.099L32.6445 22.099Z" fill="#161519"/>
  <path d="M49.8437 18.1667C49.87 19.294 50.7088 20.0018 52.1769 20.0018C53.6712 20.0018 54.4839 19.3988 54.4839 18.4551C54.4839 17.7997 54.1431 17.3278 52.9896 17.0657L50.6564 16.5151C48.3233 15.9908 47.196 14.8898 47.196 12.8188C47.196 10.2759 49.3456 8.75537 52.3342 8.75537C55.2441 8.75537 57.2103 10.4332 57.2365 12.9498H54.1955C54.1693 11.8488 53.4352 11.141 52.2031 11.141C50.9448 11.141 50.2108 11.7177 50.2108 12.6877C50.2108 13.4217 50.7875 13.8936 51.8885 14.1558L54.2217 14.7063C56.3976 15.2044 57.4986 16.2006 57.4986 18.1929C57.4986 20.8145 55.2703 22.4398 52.072 22.4398C48.8476 22.4398 46.8027 20.7096 46.8027 18.1667H49.8437Z" fill="#161519"/>
  <path d="M58.8027 15.6238C58.8027 11.5604 61.4505 8.75537 65.2517 8.75537C69.1316 8.75537 71.5959 11.3507 71.5959 15.3879V16.3578L61.8437 16.3841C62.0797 18.6648 63.2856 19.8183 65.409 19.8183C67.1655 19.8183 68.3189 19.1367 68.686 17.9046H71.6483C71.0978 20.7358 68.7384 22.4398 65.3566 22.4398C61.5029 22.4398 58.8027 19.6348 58.8027 15.6238ZM61.9224 14.3392H68.4238C68.4238 12.5566 67.1917 11.3769 65.2779 11.3769C63.3904 11.3769 62.2369 12.3993 61.9224 14.3392Z" fill="#161519"/>
  <path d="M73.8223 22.099V2.59473H76.9943V22.099H73.8223Z" fill="#161519"/>
  <path d="M86.0263 8.78174C90.0373 8.78174 92.9472 11.5606 92.9472 15.5978C92.9472 19.635 90.0373 22.4138 86.0263 22.4138C82.0154 22.4138 79.1055 19.6349 79.1055 15.5978C79.1055 11.5606 82.0154 8.78174 86.0263 8.78174ZM86.0263 19.5563C88.2284 19.5563 89.7489 17.9571 89.7489 15.5978C89.7489 13.2384 88.2284 11.6392 86.0263 11.6392C83.8242 11.6392 82.3038 13.2383 82.3038 15.5978C82.3038 17.9572 83.8242 19.5563 86.0263 19.5563Z" fill="#161519"/>
  <path d="M101.222 8.78174C105.233 8.78174 108.143 11.5606 108.143 15.5978C108.143 19.635 105.233 22.4138 101.222 22.4138C97.2107 22.4138 94.3008 19.6349 94.3008 15.5978C94.3008 11.5606 97.2107 8.78174 101.222 8.78174ZM101.222 19.5563C103.424 19.5563 104.944 17.9571 104.944 15.5978C104.944 13.2384 103.424 11.6392 101.222 11.6392C99.0196 11.6392 97.4991 13.2383 97.4991 15.5978C97.4991 17.9572 99.0196 19.5563 101.222 19.5563Z" fill="#161519"/>
  <path d="M110.23 22.099V9.14861H113.167L113.429 10.6691C114.084 9.59425 115.395 8.75537 117.256 8.75537C119.222 8.75537 120.586 9.72536 121.267 11.2196C121.923 9.72536 123.443 8.75537 125.409 8.75537C128.555 8.75537 130.285 10.6429 130.285 13.6315V22.099H127.113V14.4703C127.113 12.609 126.117 11.6391 124.596 11.6391C123.05 11.6391 121.87 12.6352 121.87 14.7587V22.099H118.672V14.4441C118.672 12.6352 117.702 11.6653 116.181 11.6653C114.661 11.6653 113.429 12.6615 113.429 14.7587V22.099L110.23 22.099Z" fill="#161519"/>
</svg>