<svg width="17" height="24" viewBox="0 0 17 24" fill="none" xmlns="http://www.w3.org/2000/svg">
<g id="senseloom-logo-full-color-rgb 1">
<path id="fullLogo" d="M10.6003 10.5795L7.4615 9.8974C5.95709 9.55194 5.18788 8.8725 5.05384 7.69764H1.54386C1.65135 10.5906 3.41895 12.4311 6.69712 13.1451L9.86339 13.855C11.3408 14.1753 12.0406 14.8503 12.1636 15.9619H15.6762C15.6483 13.0332 13.9829 11.3102 10.6003 10.5795ZM8.38953 19.0136C6.15128 19.0136 4.78665 18.0038 4.75922 16.3113H1.26562C1.34746 19.8868 4.13155 22.1525 8.38953 22.1525C8.7664 22.1525 9.13265 22.1348 9.48652 22.0998V18.9296C9.14682 18.9849 8.78011 19.0136 8.38953 19.0136ZM8.63501 1.49074C8.36606 1.49074 8.10244 1.50047 7.84499 1.52037V4.64549C8.07854 4.61675 8.32406 4.60214 8.5806 4.60214C10.5455 4.60214 11.7739 5.612 11.8557 7.33182H15.3493C15.24 3.72897 12.6745 1.49074 8.63501 1.49074Z" fill="#161519"/>
<g id="Group">
<path id="fullLogo_2" d="M3.72996 1.50684H3.61186C2.46708 1.50684 1.53906 2.43486 1.53906 3.57963V3.57965C1.53906 4.72442 2.46708 5.65244 3.61186 5.65244H3.72996C4.87474 5.65244 5.80276 4.72442 5.80276 3.57965V3.57963C5.80276 2.43486 4.87474 1.50684 3.72996 1.50684Z" fill="#4C17ED"/>
</g>
<g id="Group_2">
<path id="fullLogo_3" d="M13.7241 18.0068H13.606C12.4612 18.0068 11.5332 18.9349 11.5332 20.0796V20.0796C11.5332 21.2244 12.4612 22.1524 13.606 22.1524H13.7241C14.8689 22.1524 15.7969 21.2244 15.7969 20.0796V20.0796C15.7969 18.9349 14.8689 18.0068 13.7241 18.0068Z" fill="#4C17ED"/>
</g>
</g>
</svg>
